# xmcd
#
# Track frame offsets: 
#        150
#        19717
#        40487
#        62675
#        80370
#        99767
#        118554
#        138200
#        155317
#        179702
#
# Disc length: 2618 seconds
#
# Revision: 0
# Processed by: cddbd v1.5.2PL0 Copyright (c) Steve Scherf et al.
# Submitted via: ExactAudioCopy v0.99pb5
#
DISCID=770a380a
DTITLE=Hoai Nam - Noi lai tinh xua
DYEAR=1900
DGENRE=Soundtrack
TTITLE0=Hinh bong que nha
TTITLE1=Hoa hoc tro
TTITLE2=Noi lai tinh xua
TTITLE3=Cay dan bo quen
TTITLE4=Nhanh cay trung ca
TTITLE5=Chanh long
TTITLE6=Muoi thuong
TTITLE7=Hoa cau vuon trau
TTITLE8=Dem tan ben Ngu
TTITLE9=Chuyen tau ve que ngoai
EXTD=
EXTT0=
EXTT1=
EXTT2=
EXTT3=
EXTT4=
EXTT5=
EXTT6=
EXTT7=
EXTT8=
EXTT9=
PLAYORDER=
